PathFileType	4	(X/Y/Z)	/Users/itak/Documents/Research/Walk-IL/dataset/trc/00087_00006.trc
DataRate	CameraRate	NumFrames	NumMarkers	Units	OrigDataRate	OrigDataStartFrame	OrigNumFrames
100.000000	100.000000	4	53	mm	100.000000	187	500
Frame#	Time	LPSI			L3			STRN			T10			C7			CLAV			RBAK			LBAK			LSHO			LUPA			LAEL			LAOL			LWTS			LWPS			LFRA			LIFD			LHPS			LHTS			RSHO			RUPA			RAEL			RAOL			RWTS			RWPS			RFRA			RIFD			RHTS			RHPS			RBHD			LFHD			RFHD			LBHD			LHIP			RHIP			RASI			LASI			LKNE			LTHI			LANK			LTIP			LTOE			LMT1			LMT5			LHEE			RKNE			RTHI			RANK			RTIP			RTOE			RMT1			RMT5			RHEE			RPSI			
		X1	Y1	Z1	X2	Y2	Z2	X3	Y3	Z3	X4	Y4	Z4	X5	Y5	Z5	X6	Y6	Z6	X7	Y7	Z7	X8	Y8	Z8	X9	Y9	Z9	X10	Y10	Z10	X11	Y11	Z11	X12	Y12	Z12	X13	Y13	Z13	X14	Y14	Z14	X15	Y15	Z15	X16	Y16	Z16	X17	Y17	Z17	X18	Y18	Z18	X19	Y19	Z19	X20	Y20	Z20	X21	Y21	Z21	X22	Y22	Z22	X23	Y23	Z23	X24	Y24	Z24	X25	Y25	Z25	X26	Y26	Z26	X27	Y27	Z27	X28	Y28	Z28	X29	Y29	Z29	X30	Y30	Z30	X31	Y31	Z31	X32	Y32	Z32	X33	Y33	Z33	X34	Y34	Z34	X35	Y35	Z35	X36	Y36	Z36	X37	Y37	Z37	X38	Y38	Z38	X39	Y39	Z39	X40	Y40	Z40	X41	Y41	Z41	X42	Y42	Z42	X43	Y43	Z43	X44	Y44	Z44	X45	Y45	Z45	X46	Y46	Z46	X47	Y47	Z47	X48	Y48	Z48	X49	Y49	Z49	X50	Y50	Z50	X51	Y51	Z51	X52	Y52	Z52	X53	Y53	Z53	

188	1.87	-1198.406005859375	1004.397094726562	285.3622131347656	-1192.248291015625	1070.775024414062	373.4061584472656	-923.3838500976562	1252.690185546875	379.3932800292969	-1196.391235351562	1204.76123046875	378.2311096191406	-1118.578979492188	1467.150268554688	382.708740234375	-945.5654296875	1369.34033203125	379.2588806152344	-1188.780517578125	1330.98291015625	454.7124938964844	-1145.240844726562	1434.351318359375	282.1339416503906	-1044.318603515625	1434.049926757812	206.3539733886719	-1080.1640625	1313.730590820312	126.059211730957	-1098.232543945312	1101.636474609375	96.32235717773438	-1153.181030273438	1091.947143554688	188.5360717773438	-1055.367553710938	843.0696411132812	128.7611846923828	-1119.818481445312	851.5194702148438	75.36514282226562	-1101.513061523438	992.6424560546875	78.5723876953125	-1087.565673828125	658.748046875	133.6256866455078	-1106.815185546875	765.7985229492188	69.9276123046875	-1053.170166015625	757.9262084960938	116.0241546630859	-1055.546997070312	1421.828735351562	556.3152465820312	-1070.782104492188	1352.744384765625	619.7389526367188	-1110.276977539062	1087.647583007812	644.7713623046875	-1096.600830078125	1066.823486328125	547.4721069335938	-976.6340942382812	831.6469116210938	595.4296264648438	-1045.07373046875	817.10986328125	648.3386840820312	-1099.627319335938	1006.612609863281	649.5191650390625	-981.8501586914062	645.8103637695312	570.7167358398438	-955.3550415039062	730.3777465820312	591.4854125976562	-1008.281433105469	728.3812866210938	647.8558959960938	-1042.538330078125	1629.081909179688	483.1906433105469	-926.026123046875	1674.158203125	299.379638671875	-887.5792846679688	1667.966430664062	419.4404602050781	-1092.430053710938	1643.556518554688	355.6309814453125	-1086.912475585938	946.9672241210938	198.5366668701172	-1141.6044921875	937.6532592773438	541.3971557617188	-1015.591003417969	947.7039794921875	529.34228515625	-982.659423828125	952.2557983398438	264.2568664550781	-865.0498046875	528.5630493164062	259.5244140625	-945.0984497070312	645.1364135742188	208.9506225585938	-817.6870727539062	57.85536575317383	242.8391418457031	-845.4093627929688	282.4948425292969	235.7740325927734	-629.240966796875	123.091178894043	270.3067321777344	-677.0650024414062	99.72939300537109	316.5768127441406	-715.8040771484375	81.63402557373047	214.4042205810547	-872.5045166015625	41.97658157348633	314.164794921875	-1151.1484375	498.2164916992188	507.4877014160156	-1089.818725585938	760.384033203125	546.6287231445312	-1353.10009765625	49.03656005859375	474.4031066894531	-1201.238525390625	382.2734985351562	504.71484375	-1137.415771484375	43.46923828125	452.5375671386719	-1193.170043945312	49.88668441772461	408.2905883789062	-1231.4677734375	46.95729446411133	499.3372802734375	-1397.366333007812	60.44284439086914	414.5384826660156	-1197.87060546875	1015.691711425781	461.754150390625	
189	1.88	-1191.20947265625	1003.568115234375	284.3212585449219	-1185.129028320312	1069.958374023438	372.4520568847656	-916.2976684570312	1251.878784179688	378.2110595703125	-1189.101196289062	1203.730346679688	377.5259399414062	-1111.691284179688	1466.278076171875	381.5838317871094	-938.4845581054688	1368.543090820312	377.9666442871094	-1181.693359375	1330.139282226562	453.8933715820312	-1138.437866210938	1433.333129882812	281.0992126464844	-1037.632934570312	1433.005126953125	205.1583862304688	-1073.507080078125	1312.494995117188	125.0911712646484	-1091.436157226562	1100.344360351562	95.67182159423828	-1146.149658203125	1090.693969726562	188.0344696044922	-1048.229614257812	841.8704833984375	128.2235565185547	-1112.870727539062	850.211181640625	75.01820373535156	-1094.645385742188	991.3364868164062	78.04812622070312	-1080.341796875	657.5059204101562	133.303466796875	-1099.80859375	764.5121459960938	69.59726715087891	-1046.027099609375	756.7200317382812	115.5693893432617	-1048.223754882812	1421.120483398438	555.1880493164062	-1063.331420898438	1351.9794921875	618.7133178710938	-1102.391723632812	1086.94580078125	644.114990234375	-1089.182495117188	1066.033325195312	546.787353515625	-969.2495727539062	830.8004150390625	594.5575561523438	-1037.497680664062	816.3772583007812	647.8325805664062	-1091.767211914062	1005.902709960938	648.9924926757812	-974.7146606445312	644.9522705078125	570.2761840820312	-948.1193237304688	729.4978637695312	590.6806640625	-1000.756530761719	727.672607421875	647.3727416992188	-1035.497436523438	1628.241088867188	482.0466613769531	-919.8341064453125	1673.509765625	297.7348937988281	-880.8551025390625	1667.396362304688	417.64208984375	-1085.957885742188	1642.608276367188	354.7350158691406	-1079.609741210938	946.0390014648438	197.7085418701172	-1134.67138671875	936.8717041015625	540.3712158203125	-1008.701354980469	946.8584594726562	528.4550170898438	-975.3204345703125	951.3843383789062	263.397216796875	-859.0972900390625	527.20458984375	258.9004516601562	-938.5618896484375	643.9046630859375	208.3604125976562	-813.0372924804688	56.45579147338867	244.0112762451172	-840.3280029296875	280.9504089355469	236.1142883300781	-624.134521484375	121.0113220214844	269.5440673828125	-671.579833984375	97.98922729492188	316.3334045410156	-711.3451538085938	79.65264892578125	214.5877685546875	-867.2109985351562	41.0256462097168	315.9270629882812	-1145.73095703125	497.7429504394531	507.1472778320312	-1083.299926757812	759.6906127929688	545.7928466796875	-1352.884155273438	50.51546096801758	474.4735412597656	-1197.18701171875	382.20751953125	504.5486755371094	-1137.268920898438	43.32941436767578	452.5408630371094	-1192.97998046875	49.94823837280273	408.4457702636719	-1231.384887695312	47.02241897583008	499.3890991210938	-1397.007446289062	62.75967407226562	414.6565856933594	-1190.916015625	1014.885986328125	460.6697082519531	
190	1.89	-1183.808471679688	1002.810729980469	283.1566467285156	-1177.850708007812	1069.192016601562	371.3598327636719	-909.0801391601562	1251.162353515625	376.9573669433594	-1181.688842773438	1202.754150390625	376.6501770019531	-1104.712280273438	1465.473388671875	380.3113403320312	-931.3001708984375	1367.838256835938	376.5912170410156	-1174.494873046875	1329.350463867188	452.9149780273438	-1131.512573242188	1432.371826171875	279.9003295898438	-1030.787963867188	1432.023071289062	203.8368072509766	-1066.647094726562	1311.297973632812	124.0004348754883	-1084.36328125	1099.070678710938	94.94916534423828	-1138.892700195312	1089.484375	187.4282989501953	-1040.7490234375	840.7210693359375	127.7425384521484	-1105.533935546875	848.8982543945312	74.70161437988281	-1087.45654296875	990.0364990234375	77.49650573730469	-1072.646850585938	656.3162841796875	133.0960235595703	-1092.367309570312	763.2271118164062	69.33909606933594	-1038.47314453125	755.5606689453125	115.2118072509766	-1040.844482421875	1420.493041992188	553.9368896484375	-1055.781982421875	1351.28466796875	617.522216796875	-1094.4609375	1086.330444335938	643.3582153320312	-1081.7216796875	1065.325073242188	546.0331420898438	-961.7900390625	830.0518188476562	593.6446533203125	-1029.84814453125	815.7628784179688	647.2987060546875	-1083.85693359375	1005.282043457031	648.4007568359375	-967.56298828125	644.1838989257812	569.8362426757812	-940.8413696289062	728.7114868164062	589.8623046875	-993.182861328125	727.072021484375	646.8723754882812	-1028.376831054688	1627.47900390625	480.8061828613281	-913.5452270507812	1672.951904296875	296.0087890625	-874.0562744140625	1666.916870117188	415.75830078125	-1079.40625	1641.724487304688	353.7271118164062	-1072.109375	945.1726684570312	196.7658081054688	-1127.539794921875	936.1958618164062	539.2102661132812	-1001.599060058594	946.1243286132812	527.4877319335938	-967.7966918945312	950.5697021484375	262.4573059082031	-852.9660034179688	525.834228515625	258.2243347167969	-931.739990234375	642.788330078125	207.8133697509766	-809.5818481445312	54.9245719909668	245.1857299804688	-835.73583984375	279.2303161621094	236.4862823486328	-620.03955078125	118.0722961425781	268.8177185058594	-667.1469116210938	95.53217315673828	316.1118774414062	-708.0068359375	77.15056610107422	214.8003387451172	-863.1829223632812	40.09091186523438	317.6844787597656	-1140.082641601562	497.3751831054688	506.7997741699219	-1076.552368164062	759.1010131835938	544.838134765625	-1352.59716796875	52.23376083374023	474.6096801757812	-1192.908569335938	382.2793884277344	504.4092102050781	-1137.07177734375	43.17510223388672	452.5838928222656	-1192.759399414062	50.05138397216797	408.6253662109375	-1231.181030273438	47.17968368530273	499.5072021484375	-1396.551879882812	65.32308197021484	414.8444213867188	-1183.741455078125	1014.169555664062	459.4642333984375	
191	1.9	-1176.196655273438	1002.147521972656	281.8682250976562	-1170.387939453125	1068.480224609375	370.1338806152344	-901.7317504882812	1250.567626953125	375.6255493164062	-1174.152954101562	1201.852294921875	375.5945739746094	-1097.642333984375	1464.754028320312	378.8895568847656	-924.0167846679688	1367.247436523438	375.1270446777344	-1167.185302734375	1328.628784179688	451.7676086425781	-1124.468139648438	1431.484497070312	278.5308837890625	-1023.787475585938	1431.125366210938	202.3831634521484	-1059.577514648438	1310.161010742188	122.7823867797852	-1077.010986328125	1097.836547851562	94.15525054931641	-1131.409545898438	1088.338500976562	186.717529296875	-1032.928466796875	839.6409912109375	127.3339080810547	-1097.81103515625	847.60498046875	74.41315460205078	-1079.944946289062	988.764404296875	76.91759490966797	-1064.492431640625	655.1984252929688	133.0054779052734	-1084.498046875	761.9666748046875	69.15306091308594	-1030.526733398438	754.46240234375	114.9520797729492	-1033.419921875	1419.964721679688	552.5542602539062	-1048.141723632812	1350.678588867188	616.15673828125	-1086.502075195312	1085.82177734375	642.4942626953125	-1074.231811523438	1064.713500976562	545.2063598632812	-954.2691650390625	829.4260864257812	592.7064208984375	-1022.139465332031	815.2921142578125	646.734619140625	-1075.912841796875	1004.766784667969	647.7288818359375	-960.3916015625	643.5291137695312	569.4025268554688	-933.5313720703125	728.041015625	589.047607421875	-985.5680541992188	726.6010131835938	646.3556518554688	-1021.173645019531	1626.81787109375	479.4750061035156	-907.1622924804688	1672.506469726562	294.2037658691406	-867.1832885742188	1666.549194335938	413.7913208007812	-1072.769653320312	1640.929321289062	352.6117858886719	-1064.408569335938	944.3881225585938	195.7028656005859	-1120.17919921875	935.6361083984375	537.928466796875	-994.2462158203125	945.5120239257812	526.4328002929688	-960.0930786132812	949.833740234375	261.4311218261719	-846.6876831054688	524.469482421875	257.5542297363281	-924.7017822265625	641.7606811523438	207.3059692382812	-807.1253662109375	53.37438201904297	246.2968902587891	-831.5310668945312	277.4095153808594	236.8855743408203	-616.788818359375	114.3901214599609	268.185791015625	-663.6226806640625	92.44599914550781	315.9331665039062	-705.5941162109375	74.27388763427734	215.0371856689453	-860.2637939453125	39.23814392089844	319.3316955566406	-1134.189575195312	497.1278076171875	506.4405822753906	-1069.574340820312	758.6287841796875	543.7659301757812	-1352.221923828125	54.20069122314453	474.8294677734375	-1188.37841796875	382.5004272460938	504.292724609375	-1136.840576171875	43.01625061035156	452.6539001464844	-1192.508422851562	50.20144271850586	408.8257751464844	-1230.868774414062	47.42533874511719	499.6920776367188	-1395.985473632812	68.15729522705078	415.1160583496094	-1176.316040039062	1013.555236816406	458.15087890625	
